# xmcd CD database file
#
# Track frame offsets:
#	150
#	23037
#	41712
#	63512
#	83835
#	106815
#	124412
#	143582
#
# Disc length: 2133 seconds
#
# Revision: 1
# Processed by: cddbd v1.5.2PL0 Copyright (c) Steve Scherf et al.
# Submitted via: CDex 1.70beta2
#
DISCID=66085308
DTITLE=松田悟志 - Cobalt
DYEAR=2003
DGENRE=JPop
TTITLE0=空の風力計
TTITLE1=DISTANCE
TTITLE2=紺碧の風
TTITLE3=SMILE～笑顔の君へ～
TTITLE4=TABOO
TTITLE5=I WISH
TTITLE6=朝焼けの帰り道
TTITLE7=NIGHT～夜は千の目を持ってる～
EXTD=YEAR: 2003
EXTT0=
EXTT1=
EXTT2=
EXTT3=
EXTT4=
EXTT5=
EXTT6=
EXTT7=
PLAYORDER=
